<svg xmlns="http://www.w3.org/2000/svg" viewBox="0 0 64 64" role="img" aria-labelledby="title desc">
  <title id="title">縣市學生學習能力檢測 favicon</title>
  <desc id="desc">Simplified open book with assessment bars and growth arrow.</desc>
  <rect x="2" y="2" width="60" height="60" rx="14" fill="#5F7F6F"/>
  <!-- open book -->
  <path d="M9 21c8-3 15-2 22 2v27c-6-4-13-5-22-2z" fill="#FFFBE7"/>
  <path d="M33 23c7-4 14-5 22-2v27c-9-3-16-2-22 2z" fill="#FFFBE7"/>
  <path d="M32 23v27" stroke="#9CB89A" stroke-width="2" stroke-linecap="round"/>
  <!-- checklist hint -->
  <circle cx="15" cy="29" r="1.6" fill="#5F7F6F"/>
  <circle cx="15" cy="35" r="1.6" fill="#5F7F6F"/>
  <path d="M19 29h7M19 35h7" stroke="#5F7F6F" stroke-width="2.5" stroke-linecap="round"/>
  <!-- score bars -->
  <rect x="37" y="35" width="4" height="9" rx="1" fill="#9CB89A"/>
  <rect x="43" y="30" width="4" height="14" rx="1" fill="#79A085"/>
  <rect x="49" y="25" width="4" height="19" rx="1" fill="#5F7F6F"/>
  <!-- growth arrow -->
  <path d="M36 25c6-1 10-4 14-9" fill="none" stroke="#F0C363" stroke-width="3.2" stroke-linecap="round"/>
  <path d="M48 15l7-2-2 7z" fill="#F0C363"/>
  <path d="M40 14v-4M35 16l-3-3M45 15l3-4" stroke="#F0C363" stroke-width="2.5" stroke-linecap="round"/>
</svg>